<svg xmlns="http://www.w3.org/2000/svg" viewBox="0 0 24 24" fill="beige">
  <path
    d="M17.54 3.158A.996.996 0 0017 3h-.926c-.99 0-1.875.627-2.153 1.524a1.868 1.868 0 01-.493.79c-.38.366-.888.567-1.428.567-.886 0-1.675-.556-1.92-1.353C9.8 3.628 8.914 3 7.923 3H7a.996.996 0 00-.54.158A18.594 18.594 0 001.18 8.231a1 1 0 00-.066 1.033 7.63 7.63 0 003.454 3.321 1 1 0 00.958-.05 20.395 20.395 0 00.149 6.002c.274 1.58 1.547 2.85 3.168 3.163 1.048.2 2.102.301 3.158.301 1.055 0 2.11-.1 3.16-.3 1.62-.313 2.892-1.585 3.166-3.165.346-1.996.396-4.007.149-6.002a1 1 0 00.958.051 7.63 7.63 0 003.454-3.321 1 1 0 00-.066-1.033 18.594 18.594 0 00-5.282-5.073zm1.566 7.328L17.626 9.3a1.001 1.001 0 00-1.602.998l.16.717c.529 2.372.587 4.789.171 7.181-.132.766-.765 1.385-1.574 1.54a14.596 14.596 0 01-5.561 0c-.81-.155-1.443-.774-1.575-1.54a18.402 18.402 0 01.17-7.18l.16-.718a1 1 0 00-1.601-.998l-1.48 1.187a5.641 5.641 0 01-1.7-1.63A16.608 16.608 0 017.297 5h.627c.129 0 .23.07.244.118.51 1.653 2.05 2.763 3.832 2.763 1.06 0 2.059-.4 2.813-1.124a3.869 3.869 0 001.018-1.64c.016-.05.115-.117.243-.117h.63a16.608 16.608 0 014.102 3.856 5.641 5.641 0 01-1.7 1.63z" />
</svg>